<svg xmlns="http://www.w3.org/2000/svg" version="1.1" xmlns:xlink="http://www.w3.org/1999/xlink" xmlns:svgjs="http://svgjs.dev/svgjs" width="1500" height="1500" viewBox="0 0 1500 1500"><rect width="1500" height="1500" fill="#ffffff"></rect><g transform="matrix(0.6666666666666666,0,0,0.6666666666666666,249.39393939393938,438.5856950067477)"><svg viewBox="0 0 396 247" data-background-color="#ffffff" preserveAspectRatio="xMidYMid meet" height="935" width="1500" xmlns="http://www.w3.org/2000/svg" xmlns:xlink="http://www.w3.org/1999/xlink"><g id="tight-bounds" transform="matrix(1,0,0,1,0.2400000000000091,-0.09999999999999432)"><svg viewBox="0 0 395.52 247.2" height="247.2" width="395.52"><g><svg></svg></g><g><svg viewBox="0 0 395.52 247.2" height="247.2" width="395.52"><g><path d="M55.039 247.2l26.403-45.732h6.597l-22.924 39.706h265.29l-22.924-39.706 6.597 0 26.403 45.732zM197.76 0l26.403 45.732-6.596 0-19.807-34.306-19.807 34.306-6.596 0z" fill="#000000" fill-rule="nonzero" stroke="none" stroke-width="1" stroke-linecap="butt" stroke-linejoin="miter" stroke-miterlimit="10" stroke-dasharray="" stroke-dashoffset="0" font-family="none" font-weight="none" font-size="none" text-anchor="none" style="mix-blend-mode: normal" data-fill-palette-color="tertiary"></path></g><g transform="matrix(1,0,0,1,43.98214105900885,67.97999999999999)"><svg viewBox="0 0 307.5557178819823 111.24" height="111.24" width="307.5557178819823"><g><svg viewBox="0 0 353.57907332571426 127.88621322867193" height="111.24" width="307.5557178819823"><g transform="matrix(1,0,0,1,151.28118761142858,8.323106614335977)"><svg viewBox="0 0 202.2978857142857 111.23999999999998" height="111.23999999999998" width="202.2978857142857"><g id="textblocktransform"><svg viewBox="0 0 202.2978857142857 111.23999999999998" height="111.23999999999998" width="202.2978857142857" id="textblock"><g><svg viewBox="0 0 202.2978857142857 111.23999999999998" height="111.23999999999998" width="202.2978857142857"><g transform="matrix(1,0,0,1,0,0)"><svg width="202.2978857142857" viewBox="6.5 -35 63.650000000000006 35" height="111.23999999999998" data-palette-color="#294b29"><path d="M21.9 0L6.5 0 6.5-35 21.75-35 21.75-32.55 13-33.7Q10.7-34 9.9-34L9.9-34 9.9-18.75Q10.55-18.75 13-18.9L13-18.9 21.2-19.4 21.2-17.1 13-17.6Q10.55-17.75 9.9-17.75L9.9-17.75 9.9-1Q10.8-1 13.05-1.3L13.05-1.3 21.9-2.45 21.9 0ZM32.4 0L32.4-35 35.8-35 35.8-1Q36.75-1 38.8-1.3L38.8-1.3 47.1-2.55 47.1 0 32.4 0ZM58.85 0L55.45 0 55.45-35 70.15-35 70.15-32.55 61.85-33.7Q59.6-34 58.85-34L58.85-34 58.85-18.35Q59.65-18.35 61.95-18.5L61.95-18.5 69.6-19 69.6-16.7 61.95-17.2Q59.65-17.35 58.85-17.35L58.85-17.35 58.85 0Z" opacity="1" transform="matrix(1,0,0,1,0,0)" fill="#000000" class="wordmark-text-0" data-fill-palette-color="primary" id="text-0"></path></svg></g></svg></g></svg></g></svg></g><g><svg viewBox="0 0 125.02009337142857 127.88621322867193" height="127.88621322867193" width="125.02009337142857"><g><svg xmlns="http://www.w3.org/2000/svg" xmlns:xlink="http://www.w3.org/1999/xlink" version="1.1" x="0" y="0" viewBox="4.373 3.328 91.253 93.345" enable-background="new 0 0 100 100" xml:space="preserve" height="127.88621322867193" width="125.02009337142857" class="icon-icon-0" data-fill-palette-color="accent" id="icon-0"><g fill="#294b29" data-fill-palette-color="accent"><path fill="#000000" d="M33.169 39.007l3.089 1.449c0.017 0.198 0.053 0.39 0.105 0.573l-2.67-1.252c-0.105-0.05-0.231-0.004-0.282 0.102-0.05 0.106-0.003 0.232 0.103 0.282l3.085 1.448c0.5 0.93 1.482 1.564 2.613 1.564 1.639 0 2.969-1.329 2.969-2.968h-5.463l-3.368-1.581c-0.105-0.049-0.232-0.005-0.282 0.102C33.017 38.831 33.063 38.957 33.169 39.007z" data-fill-palette-color="accent"></path><path fill="#000000" d="M59.312 43.013c1.132 0 2.113-0.632 2.615-1.563l3.083-1.447c0.106-0.05 0.152-0.176 0.103-0.282-0.05-0.105-0.177-0.151-0.282-0.102l-2.67 1.253c0.055-0.184 0.091-0.376 0.106-0.574l3.088-1.447c0.106-0.051 0.152-0.178 0.102-0.282-0.049-0.107-0.175-0.152-0.282-0.102l-3.368 1.581h-5.462C56.345 41.686 57.674 43.013 59.312 43.013z" data-fill-palette-color="accent"></path><path fill="#000000" d="M51.222 38.687h-3.919l-0.73 16.673h5.379L51.222 38.687zM47.643 54.334l0.641-14.624h1.958l0.642 14.624H47.643z" data-fill-palette-color="accent"></path><path fill="#000000" d="M88.312 41.891C88 40.77 87.564 39.686 87.01 38.658c1.233-2.28 1.885-4.851 1.885-7.46 0-1.352-0.173-2.693-0.515-3.992-0.357-1.365-0.901-2.678-1.614-3.9C79.245 6.797 68.419 3.328 60.655 3.328c-5.527 0-9.668 1.73-10.544 2.127h-0.471c-0.875-0.396-5.016-2.127-10.543-2.127-7.764 0-18.591 3.469-26.109 19.978-0.713 1.223-1.258 2.536-1.615 3.9-0.342 1.299-0.514 2.643-0.514 3.992 0 2.61 0.65 5.18 1.884 7.46-0.647 1.197-1.132 2.473-1.449 3.793H4.373l0.957 1.237c1.04 1.345 3.177 3.905 5.815 5.95l0.139 0.109c0.318 1.333 0.806 2.622 1.459 3.831-1.233 2.281-1.884 4.85-1.884 7.459 0 3.656 1.265 7.168 3.578 9.975-2.313 2.805-3.578 6.32-3.578 9.973 0 8.65 7.037 15.688 15.688 15.688h0.751 45.153 0.754c8.649 0 15.688-7.037 15.688-15.688 0-3.652-1.268-7.168-3.579-9.973 2.312-2.807 3.579-6.318 3.579-9.975 0-2.609-0.651-5.178-1.885-7.459 0.727-1.344 1.248-2.791 1.558-4.284 2.757-2.068 4.996-4.733 6.104-6.165l0.956-1.238H88.312zM7.545 43.987h3.335c-0.15 0.875-0.224 1.761-0.224 2.652 0 0.198 0.003 0.397 0.011 0.594C9.428 46.118 8.358 44.947 7.545 43.987zM27.329 95.135l0.775-39.625 1.471 4.184 20.463 9.965 20.467-9.965 1.16-3.303 0.758 38.744H27.329zM28.731 23.515l2.549-3.01 18.288 10.697h0.709l18.226-10.662 2.519 2.975 0.565 28.922-2.167 6.17-19.382 9.439-19.379-9.439-2.479-7.049L28.731 23.515zM33.622 18.092l16.3 9.536 16.081-9.406c0.473 0.424 0.918 0.834 1.328 1.226L49.922 29.631 32.37 19.363C32.79 18.913 33.208 18.489 33.622 18.092zM49.922 25.85l-15.198-8.893c2.334-1.749 4.633-2.637 6.855-2.637 2.633 0 5.206 1.269 7.648 3.772l0.225 0.233H50.3l0.226-0.233c2.44-2.504 5.016-3.772 7.648-3.772 2.235 0 4.549 0.898 6.895 2.668L49.922 25.85zM87.358 61.037c0 3.5-1.289 6.861-3.627 9.461l-0.462 0.514 0.462 0.514c2.338 2.6 3.627 5.959 3.627 9.459 0 7.553-5.945 13.74-13.4 14.133l-1.412-72.179-4.93-5.821-0.071-0.074c-3.135-2.825-6.287-4.258-9.371-4.258-2.897 0-5.685 1.273-8.299 3.79-2.611-2.517-5.399-3.79-8.296-3.79-3.084 0-6.237 1.433-9.371 4.258l-5.001 5.896-1.414 72.179c-7.454-0.393-13.397-6.58-13.397-14.133 0-3.5 1.287-6.859 3.627-9.459l0.461-0.514-0.461-0.514c-2.34-2.6-3.627-5.961-3.627-9.461 0-2.486 0.653-4.934 1.894-7.076l0.222-0.383-0.222-0.385c-1.24-2.139-1.894-4.587-1.894-7.075 0-2.487 0.653-4.934 1.894-7.075l0.222-0.385-0.222-0.385c-1.24-2.14-1.894-4.587-1.894-7.075 0-1.219 0.155-2.431 0.463-3.603 0.325-1.242 0.82-2.436 1.474-3.547l0.036-0.071C21.551 8.18 31.78 4.865 39.098 4.865c5.738 0 9.997 2.028 10.038 2.049l0.158 0.078h1.164l0.159-0.078c0.041-0.021 4.278-2.049 10.038-2.049 7.316 0 17.547 3.315 24.728 19.113l0.038 0.071c0.651 1.111 1.149 2.305 1.474 3.547 0.308 1.17 0.464 2.384 0.464 3.603 0 2.488-0.655 4.934-1.894 7.075l-0.223 0.385 0.223 0.385c1.234 2.134 1.889 4.572 1.893 7.051-0.001 0.876-0.085 1.76-0.248 2.625l-0.077 0.414c-0.31 1.422-0.835 2.793-1.567 4.059l-0.223 0.385 0.223 0.383C86.703 56.104 87.358 58.551 87.358 61.037zM88.864 47.087c0.021-0.322 0.03-0.646 0.03-0.969 0-0.007-0.001-0.012-0.001-0.021 0-0.004 0.001-0.011 0.001-0.019 0-0.037-0.002-0.074-0.003-0.111-0.002-0.136-0.004-0.273-0.01-0.409-0.004-0.125-0.01-0.248-0.017-0.37-0.002-0.033-0.003-0.065-0.006-0.097-0.036-0.558-0.096-1.113-0.188-1.664h3.783C91.535 44.515 90.298 45.854 88.864 47.087z" data-fill-palette-color="accent"></path></g></svg></g></svg></g></svg></g></svg></g></svg></g><defs></defs></svg><rect width="395.52" height="247.2" fill="none" stroke="none" visibility="hidden"></rect></g></svg></g></svg>