<svg xmlns="http://www.w3.org/2000/svg" version="1.1" xmlns:xlink="http://www.w3.org/1999/xlink" xmlns:svgjs="http://svgjs.dev/svgjs" width="1500" height="1469" viewBox="0 0 1500 1469"><g transform="matrix(1,0,0,1,-0.9090909090909918,-0.18684395501406925)"><svg viewBox="0 0 396 388" data-background-color="#eff1f1" preserveAspectRatio="xMidYMid meet" height="1469" width="1500" xmlns="http://www.w3.org/2000/svg" xmlns:xlink="http://www.w3.org/1999/xlink"><g id="tight-bounds" transform="matrix(1,0,0,1,0.2400000000000091,70.39999999999998)"><svg viewBox="0 0 395.52 247.2" height="247.2" width="395.52"><g><svg></svg></g><g><svg viewBox="0 0 395.52 247.2" height="247.2" width="395.52"><g transform="matrix(1,0,0,1,120.24237457627117,47.215199999999996)"><svg viewBox="0 0 155.03525084745763 152.7696" height="152.7696" width="155.03525084745763"><g><svg viewBox="0 0 155.03525084745763 152.7696" height="152.7696" width="155.03525084745763"><g><svg viewBox="0 0 155.03525084745763 152.7696" height="152.7696" width="155.03525084745763"><g><svg viewBox="0 0 155.03525084745763 152.7696" height="152.7696" width="155.03525084745763"><g id="textblocktransform"><svg viewBox="0 0 155.03525084745763 152.7696" height="152.7696" width="155.03525084745763" id="textblock"><g><svg viewBox="0 0 155.03525084745763 152.7696" height="152.7696" width="155.03525084745763"><g transform="matrix(1,0,0,1,0,0)"><svg width="155.03525084745763" viewBox="3.5 -36.45 47.9 47.2" height="152.7696" data-palette-color="#a6c1ee"><path d="M10.6 0.75Q7.3-0.45 5.4-3.55 3.5-6.65 3.5-10.45 3.5-14.25 5.15-18.03 6.8-21.8 9.65-24.25L9.65-24.25Q18.3-24.25 18.3-18.35L18.3-18.35Q18.3-16.45 17.6-14.6L17.6-14.6Q19-14.65 21-14.65L21-14.65 21-14.15Q20.5-14.15 20.05-14.15L20.05-14.15Q12.95-14.15 4.35-12.8L4.35-12.8Q4.2-11.5 4.2-10.35L4.2-10.35Q4.2-6.85 5.9-3.98 7.6-1.1 10.7 0.05L10.7 0.05Q12.55-0.7 14.45-2.13 16.35-3.55 17.55-5.15L17.55-5.15 18-4.85Q16.75-3.2 14.68-1.63 12.6-0.05 10.6 0.75L10.6 0.75ZM17.65-18.35L17.65-18.35Q17.65-23.7 9.85-23.7L9.85-23.7Q5.6-20.05 4.45-13.4L4.45-13.4Q9.9-14.3 17.05-14.6L17.05-14.6Q17.65-16.55 17.65-18.35ZM27.35-22.8L27.35-22.8 27.35-5.5Q27.35-3.85 27.42-3.03 27.5-2.2 27.87-1.33 28.25-0.45 29.02-0.13 29.8 0.2 31.12 0.2 32.45 0.2 33.1-0.2L33.1-0.2 33.4 0.15Q32.65 0.75 31 0.75L31 0.75Q28.3 0.75 27.5-0.65 26.7-2.05 26.7-5.35L26.7-5.35 26.7-22.6Q26.7-36.45 35.65-36.45L35.65-36.45 35.65-35.95Q27.35-35.95 27.35-22.8ZM41.15-23.5L41.15-23.5 49.2-23.5 49.2-22.95 41.15-22.95 41.55 2.5Q41.55 2.65 41.55 2.8L41.55 2.8Q41.55 8.85 37.5 10.75L37.5 10.75Q34.4 10.75 31.65 9.1L31.65 9.1 31.9 8.65Q34.75 10.2 37.35 10.2L37.35 10.2Q40.9 8.4 40.9 2.8L40.9 2.8Q40.9 2.65 40.9 2.5L40.9 2.5 40.5-22.95 35.55-22.95 35.55-23.5 40.5-23.5Q40.5-27.05 41.55-30.38 42.6-33.7 44.8-35.55L44.8-35.55Q48.35-35.55 51.4-33.8L51.4-33.8 51.1-33.35Q48.1-35 44.95-35L44.95-35Q41.15-31.55 41.15-23.5Z" opacity="1" transform="matrix(1,0,0,1,0,0)" fill="#a6c1ee" class="wordmark-text-0" data-fill-palette-color="primary" id="text-0"></path></svg></g></svg></g></svg></g></svg></g><g></g></svg></g></svg></g></svg></g><g><path d="M116.298 11.15A77.518 77.518 0 0 1 279.222 11.15L265.445 11.15A63.741 63.741 0 0 0 130.075 11.15L116.298 11.15M116.298 236.05A77.518 77.518 0 0 0 279.222 236.05L265.445 236.05A63.741 63.741 0 0 1 130.075 236.05L116.298 236.05" fill="#f6f5f4" stroke="transparent" data-fill-palette-color="tertiary"></path></g></svg></g><defs></defs></svg><rect width="395.52" height="247.2" fill="none" stroke="none" visibility="hidden"></rect></g></svg></g></svg>