<svg xmlns="http://www.w3.org/2000/svg" version="1.1" xmlns:xlink="http://www.w3.org/1999/xlink" xmlns:svgjs="http://svgjs.dev/svgjs" width="1500" height="1500" viewBox="0 0 1500 1500"><rect width="1500" height="1500" fill="#ffffff"></rect><g transform="matrix(0.6666666666666666,0,0,0.6666666666666666,249.38207053902465,381.96491228070175)"><svg viewBox="0 0 335 247" data-background-color="#f3f4f6" preserveAspectRatio="xMidYMid meet" height="1105" width="1500" xmlns="http://www.w3.org/2000/svg" xmlns:xlink="http://www.w3.org/1999/xlink"><g id="tight-bounds" transform="matrix(1,0,0,1,0.20700636942675033,-0.09999999999999432)"><svg viewBox="0 0 334.5859872611465 247.2" height="247.2" width="334.5859872611465"><g><svg viewBox="0 0 334.5859872611465 247.2" height="247.2" width="334.5859872611465"><g><svg viewBox="0 0 334.5859872611465 247.2" height="247.2" width="334.5859872611465"><g id="textblocktransform"><svg viewBox="0 0 334.5859872611465 247.2" height="247.2" width="334.5859872611465" id="textblock"><g><svg viewBox="0 0 334.5859872611465 247.2" height="247.2" width="334.5859872611465"><g transform="matrix(1,0,0,1,0,0)"><svg width="334.5859872611465" viewBox="1.4 -36.95 63.74 47.1" height="247.2" data-palette-color="#a6c1ee"><path d="M12.25 0.35L12.25 0.35Q8.6 0.35 6.2-1.13 3.8-2.6 2.6-5.03 1.4-7.45 1.4-10.25L1.4-10.25Q1.4-12.9 2.43-15.58 3.45-18.25 5.43-20.45 7.4-22.65 10.23-24 13.05-25.35 16.6-25.35L16.6-25.35Q21-25.35 23.03-23.38 25.05-21.4 25.05-18.6L25.05-18.6Q25.05-16.2 23.78-14.18 22.5-12.15 20.4-10.93 18.3-9.7 15.8-9.7L15.8-9.7Q14.5-9.7 13.15-10.1 11.8-10.5 10.5-11.35L10.5-11.35Q10.75-8.25 12.3-6.85 13.85-5.45 16-5.45L16-5.45Q17.5-5.45 19-6.03 20.5-6.6 21.78-7.53 23.05-8.45 23.75-9.5L23.75-9.5 24.1-9.25Q24.1-6.65 23.03-4.83 21.95-3 20.2-1.85 18.45-0.7 16.38-0.18 14.3 0.35 12.25 0.35ZM13.4-13.15L13.4-13.15Q15-13.15 16-14.08 17-15 17.5-16.25 18-17.5 18-18.45L18-18.45Q18-19.6 17.35-20.38 16.7-21.15 15.55-21.15L15.55-21.15Q14.65-21.15 13.58-20.5 12.5-19.85 11.65-18.28 10.8-16.7 10.55-13.9L10.55-13.9Q12.15-13.15 13.4-13.15ZM33.25 0.2L33.25 0.2Q31.9 0.2 30.62-0.48 29.35-1.15 28.55-2.65 27.75-4.15 27.75-6.5L27.75-6.5Q27.75-8.6 28.32-11.43 28.9-14.25 29.62-17.3 30.35-20.35 30.9-23.25 31.45-26.15 31.4-28.4L31.4-28.4Q31.4-30.55 30.9-31.45L30.9-31.45 30.85-31.6Q31.4-33.2 32.8-34.1 34.2-35 35.75-35L35.75-35Q37.5-35 38.87-33.68 40.25-32.35 40.25-29.25L40.25-29.25Q40.25-27.6 39.85-25.33 39.45-23.05 38.9-20.48 38.35-17.9 37.77-15.4 37.2-12.9 36.8-10.8 36.4-8.7 36.4-7.35L36.4-7.35Q36.4-5.95 36.8-5.43 37.2-4.9 37.7-4.9L37.7-4.9Q38.25-4.9 38.75-5.33 39.25-5.75 39.4-6.1L39.4-6.1 39.8-6Q39.75-4.2 38.77-2.8 37.8-1.4 36.32-0.6 34.85 0.2 33.25 0.2ZM48.09 10.15L48.09 10.15Q46.64 10.15 45.34 9.63 44.05 9.1 43.55 8.05L43.55 8.05Q44.74 2.95 45.52-1 46.3-4.95 46.74-8.05 47.2-11.15 47.39-13.73 47.59-16.3 47.64-18.7L47.64-18.7Q45.95-18.6 44.39-18.38 42.84-18.15 41.7-17.75L41.7-17.75 41.59-18.1Q43.05-19.55 44.59-20.53 46.14-21.5 47.7-22.1L47.7-22.1 47.7-25.9Q47.7-29.75 49.24-32.18 50.8-34.6 53.22-35.77 55.64-36.95 58.25-36.95L58.25-36.95Q61.7-36.95 63.42-35.3 65.14-33.65 65.14-31.6L65.14-31.6Q65.14-30.1 64.22-28.7 63.3-27.3 61.45-26.38 59.59-25.45 56.8-25.45L56.8-25.45Q57.59-26.9 58.02-28.35 58.45-29.8 58.45-30.9L58.45-30.9Q58.45-31.75 58.2-32.27 57.95-32.8 57.5-32.8L57.5-32.8Q56.55-32.8 55.67-30.43 54.8-28.05 54.8-24.2L54.8-24.2 54.8-23.25Q56.24-23.3 57.57-23.2 58.89-23.1 60.05-23L60.05-23Q60.14-22.65 60.2-22.25 60.25-21.85 60.25-21.45L60.25-21.45Q60.25-20.7 60.05-19.95 59.84-19.2 59.5-18.4L59.5-18.4Q58.59-18.5 57.45-18.6 56.3-18.7 54.99-18.75L54.99-18.75 54.99-17.65Q54.99-14.9 54.77-11.3 54.55-7.7 53.95-2.75 53.34 2.2 52.09 9.05L52.09 9.05Q50.55 10.15 48.09 10.15Z" opacity="1" transform="matrix(1,0,0,1,0,0)" fill="#000000" class="wordmark-text-0" data-fill-palette-color="primary" id="text-0"></path></svg></g></svg></g></svg></g></svg></g><g></g></svg></g><defs></defs></svg><rect width="334.5859872611465" height="247.2" fill="none" stroke="none" visibility="hidden"></rect></g></svg></g></svg>